<svg width="25" height="24" viewBox="0 0 25 24" fill="none" xmlns="http://www.w3.org/2000/svg">
<path d="M14.45 0.799999C16.4167 0.799999 18.1333 1.175 19.6 1.925C21.0667 2.65833 22.1917 3.7 22.975 5.05C23.775 6.38333 24.175 7.925 24.175 9.675C24.175 11.0917 23.925 12.4083 23.425 13.625C22.9417 14.8417 22.2167 15.8167 21.25 16.55C20.3 17.2667 19.1667 17.625 17.85 17.625C16.9667 17.625 16.2333 17.45 15.65 17.1C15.0833 16.75 14.7 16.2583 14.5 15.625C14.0333 16.275 13.4333 16.7833 12.7 17.15C11.9667 17.5 11.1667 17.675 10.3 17.675C9.06667 17.675 8.09167 17.3083 7.375 16.575C6.675 15.825 6.325 14.8083 6.325 13.525C6.325 12.3083 6.575 11.1667 7.075 10.1C7.575 9.01667 8.26667 8.15 9.15 7.5C10.0333 6.85 11.025 6.525 12.125 6.525C13.525 6.525 14.475 7.025 14.975 8.025L15.2 6.7H18.65L17.55 12.975C17.5 13.275 17.475 13.5417 17.475 13.775C17.475 14.5083 17.8 14.875 18.45 14.875C19.25 14.875 19.8583 14.3667 20.275 13.35C20.7083 12.3167 20.925 11.1333 20.925 9.8C20.925 7.88333 20.3167 6.38333 19.1 5.3C17.9 4.21667 16.2083 3.675 14.025 3.675C12.1583 3.675 10.4583 4.125 8.925 5.025C7.40833 5.925 6.21667 7.15833 5.35 8.725C4.48333 10.275 4.05 11.9833 4.05 13.85C4.05 15.8667 4.63333 17.4333 5.8 18.55C6.98333 19.6667 8.63333 20.225 10.75 20.225C12.4 20.225 13.875 19.925 15.175 19.325L15.85 22.05C14.2167 22.7667 12.3833 23.125 10.35 23.125C8.45 23.125 6.775 22.7583 5.325 22.025C3.89167 21.2917 2.78333 20.25 2 18.9C1.21667 17.55 0.825 15.975 0.825 14.175C0.825 11.6583 1.41667 9.38333 2.6 7.35C3.78333 5.3 5.40833 3.7 7.475 2.55C9.55833 1.38333 11.8833 0.799999 14.45 0.799999ZM11.7 14.6C12.1667 14.6 12.6 14.4583 13 14.175C13.4167 13.8917 13.7417 13.5167 13.975 13.05C14.225 12.5667 14.35 12.05 14.35 11.5C14.35 10.9333 14.1917 10.475 13.875 10.125C13.5583 9.75833 13.125 9.575 12.575 9.575C11.8417 9.575 11.2333 9.89167 10.75 10.525C10.2667 11.1583 10.025 11.9083 10.025 12.775C10.025 13.325 10.1667 13.7667 10.45 14.1C10.7333 14.4333 11.15 14.6 11.7 14.6Z" fill="#0B0954"/>
</svg>
