<svg width="28" height="27" viewBox="0 0 28 27" fill="none" xmlns="http://www.w3.org/2000/svg">
<path d="M18.6875 0.375C17.3699 0.374698 16.0706 0.683031 14.8937 1.27529C13.7167 1.86755 12.6949 2.72727 11.91 3.78555C11.1251 4.84383 10.5991 6.07125 10.374 7.36944C10.1489 8.66763 10.231 10.0005 10.6137 11.2613L0.875 21V26.625H6.5L16.2387 16.8862C17.3993 17.2385 18.6221 17.3365 19.8239 17.1734C21.0257 17.0103 22.1783 16.5901 23.203 15.9413C24.2277 15.2925 25.1005 14.4304 25.7619 13.4138C26.4233 12.3972 26.8577 11.25 27.0357 10.0503C27.2136 8.85061 27.1308 7.62666 26.7929 6.46185C26.455 5.29705 25.87 4.21878 25.0777 3.30053C24.2854 2.38227 23.3044 1.64561 22.2017 1.14076C21.0989 0.635905 19.9003 0.374719 18.6875 0.375ZM18.6875 15.375C18.042 15.3748 17.4001 15.2794 16.7825 15.0919L15.7072 14.7656L14.9131 15.5597L11.9309 18.5419L10.6381 17.25L9.3125 18.5756L10.6053 19.8684L9.11844 21.3553L7.82562 20.0625L6.5 21.3881L7.79281 22.6809L5.72375 24.75H2.75V21.7762L11.9394 12.5869L12.7344 11.7928L12.4081 10.7175C12.0074 9.39655 12.0335 7.98289 12.4825 6.67759C12.9316 5.3723 13.7808 4.24184 14.9094 3.44702C16.038 2.65221 17.3885 2.23352 18.7688 2.2505C20.1491 2.26748 21.4888 2.71927 22.5975 3.54161C23.7062 4.36395 24.5274 5.51496 24.9442 6.83091C25.361 8.14686 25.3523 9.56073 24.9192 10.8714C24.4861 12.1821 23.6508 13.3229 22.532 14.1314C21.4132 14.9399 20.0679 15.3751 18.6875 15.375Z" fill="#0B0954"/>
</svg>
